<svg version="1.0" xmlns="http://www.w3.org/2000/svg" xmlns:xlink="http://www.w3.org/1999/xlink"
	 viewBox="0 0 100 100" enable-background="new 0 0 100 100" xml:space="preserve">
	
<svg xmlns="http://www.w3.org/2000/svg" xmlns:xlink="http://www.w3.org/1999/xlink" version="1.1" width="100" height="100" viewBox="0 0 2000 2000" x="0" y="0" shape-rendering="crispEdges"><defs/><rect x="0" y="0" width="2000" height="2000" fill="#ffffff"/><rect x="963" y="223" width="74" height="74" fill="#000000"/><rect x="1037" y="223" width="74" height="74" fill="#000000"/><rect x="1111" y="223" width="74" height="74" fill="#000000"/><rect x="815" y="297" width="74" height="74" fill="#000000"/><rect x="889" y="297" width="74" height="74" fill="#000000"/><rect x="963" y="297" width="74" height="74" fill="#000000"/><rect x="1111" y="297" width="74" height="74" fill="#000000"/><rect x="963" y="371" width="74" height="74" fill="#000000"/><rect x="1037" y="371" width="74" height="74" fill="#000000"/><rect x="1111" y="371" width="74" height="74" fill="#000000"/><rect x="815" y="445" width="74" height="74" fill="#000000"/><rect x="889" y="445" width="74" height="74" fill="#000000"/><rect x="1111" y="445" width="74" height="74" fill="#000000"/><rect x="889" y="519" width="74" height="74" fill="#000000"/><rect x="1111" y="519" width="74" height="74" fill="#000000"/><rect x="815" y="593" width="74" height="74" fill="#000000"/><rect x="1037" y="593" width="74" height="74" fill="#000000"/><rect x="815" y="667" width="74" height="74" fill="#000000"/><rect x="963" y="667" width="74" height="74" fill="#000000"/><rect x="1111" y="667" width="74" height="74" fill="#000000"/><rect x="889" y="741" width="74" height="74" fill="#000000"/><rect x="223" y="815" width="74" height="74" fill="#000000"/><rect x="297" y="815" width="74" height="74" fill="#000000"/><rect x="371" y="815" width="74" height="74" fill="#000000"/><rect x="445" y="815" width="74" height="74" fill="#000000"/><rect x="519" y="815" width="74" height="74" fill="#000000"/><rect x="667" y="815" width="74" height="74" fill="#000000"/><rect x="741" y="815" width="74" height="74" fill="#000000"/><rect x="815" y="815" width="74" height="74" fill="#000000"/><rect x="1037" y="815" width="74" height="74" fill="#000000"/><rect x="1185" y="815" width="74" height="74" fill="#000000"/><rect x="1333" y="815" width="74" height="74" fill="#000000"/><rect x="1481" y="815" width="74" height="74" fill="#000000"/><rect x="1629" y="815" width="74" height="74" fill="#000000"/><rect x="223" y="889" width="74" height="74" fill="#000000"/><rect x="297" y="889" width="74" height="74" fill="#000000"/><rect x="445" y="889" width="74" height="74" fill="#000000"/><rect x="519" y="889" width="74" height="74" fill="#000000"/><rect x="741" y="889" width="74" height="74" fill="#000000"/><rect x="1037" y="889" width="74" height="74" fill="#000000"/><rect x="1111" y="889" width="74" height="74" fill="#000000"/><rect x="1185" y="889" width="74" height="74" fill="#000000"/><rect x="1259" y="889" width="74" height="74" fill="#000000"/><rect x="1481" y="889" width="74" height="74" fill="#000000"/><rect x="1555" y="889" width="74" height="74" fill="#000000"/><rect x="1629" y="889" width="74" height="74" fill="#000000"/><rect x="223" y="963" width="74" height="74" fill="#000000"/><rect x="297" y="963" width="74" height="74" fill="#000000"/><rect x="371" y="963" width="74" height="74" fill="#000000"/><rect x="593" y="963" width="74" height="74" fill="#000000"/><rect x="667" y="963" width="74" height="74" fill="#000000"/><rect x="741" y="963" width="74" height="74" fill="#000000"/><rect x="815" y="963" width="74" height="74" fill="#000000"/><rect x="889" y="963" width="74" height="74" fill="#000000"/><rect x="963" y="963" width="74" height="74" fill="#000000"/><rect x="1111" y="963" width="74" height="74" fill="#000000"/><rect x="1259" y="963" width="74" height="74" fill="#000000"/><rect x="1333" y="963" width="74" height="74" fill="#000000"/><rect x="297" y="1037" width="74" height="74" fill="#000000"/><rect x="371" y="1037" width="74" height="74" fill="#000000"/><rect x="445" y="1037" width="74" height="74" fill="#000000"/><rect x="519" y="1037" width="74" height="74" fill="#000000"/><rect x="741" y="1037" width="74" height="74" fill="#000000"/><rect x="1037" y="1037" width="74" height="74" fill="#000000"/><rect x="1111" y="1037" width="74" height="74" fill="#000000"/><rect x="1185" y="1037" width="74" height="74" fill="#000000"/><rect x="1259" y="1037" width="74" height="74" fill="#000000"/><rect x="1555" y="1037" width="74" height="74" fill="#000000"/><rect x="223" y="1111" width="74" height="74" fill="#000000"/><rect x="297" y="1111" width="74" height="74" fill="#000000"/><rect x="519" y="1111" width="74" height="74" fill="#000000"/><rect x="667" y="1111" width="74" height="74" fill="#000000"/><rect x="815" y="1111" width="74" height="74" fill="#000000"/><rect x="1111" y="1111" width="74" height="74" fill="#000000"/><rect x="1333" y="1111" width="74" height="74" fill="#000000"/><rect x="1481" y="1111" width="74" height="74" fill="#000000"/><rect x="1555" y="1111" width="74" height="74" fill="#000000"/><rect x="815" y="1185" width="74" height="74" fill="#000000"/><rect x="889" y="1185" width="74" height="74" fill="#000000"/><rect x="963" y="1185" width="74" height="74" fill="#000000"/><rect x="1111" y="1185" width="74" height="74" fill="#000000"/><rect x="1333" y="1185" width="74" height="74" fill="#000000"/><rect x="1555" y="1185" width="74" height="74" fill="#000000"/><rect x="815" y="1259" width="74" height="74" fill="#000000"/><rect x="889" y="1259" width="74" height="74" fill="#000000"/><rect x="1037" y="1259" width="74" height="74" fill="#000000"/><rect x="1185" y="1259" width="74" height="74" fill="#000000"/><rect x="1407" y="1259" width="74" height="74" fill="#000000"/><rect x="1555" y="1259" width="74" height="74" fill="#000000"/><rect x="1629" y="1259" width="74" height="74" fill="#000000"/><rect x="889" y="1333" width="74" height="74" fill="#000000"/><rect x="963" y="1333" width="74" height="74" fill="#000000"/><rect x="1333" y="1333" width="74" height="74" fill="#000000"/><rect x="1407" y="1333" width="74" height="74" fill="#000000"/><rect x="1555" y="1333" width="74" height="74" fill="#000000"/><rect x="1703" y="1333" width="74" height="74" fill="#000000"/><rect x="815" y="1407" width="74" height="74" fill="#000000"/><rect x="963" y="1407" width="74" height="74" fill="#000000"/><rect x="1037" y="1407" width="74" height="74" fill="#000000"/><rect x="1185" y="1407" width="74" height="74" fill="#000000"/><rect x="1407" y="1407" width="74" height="74" fill="#000000"/><rect x="1555" y="1407" width="74" height="74" fill="#000000"/><rect x="1703" y="1407" width="74" height="74" fill="#000000"/><rect x="815" y="1481" width="74" height="74" fill="#000000"/><rect x="1037" y="1481" width="74" height="74" fill="#000000"/><rect x="1111" y="1481" width="74" height="74" fill="#000000"/><rect x="1185" y="1481" width="74" height="74" fill="#000000"/><rect x="1259" y="1481" width="74" height="74" fill="#000000"/><rect x="1481" y="1481" width="74" height="74" fill="#000000"/><rect x="1629" y="1481" width="74" height="74" fill="#000000"/><rect x="815" y="1555" width="74" height="74" fill="#000000"/><rect x="889" y="1555" width="74" height="74" fill="#000000"/><rect x="963" y="1555" width="74" height="74" fill="#000000"/><rect x="1111" y="1555" width="74" height="74" fill="#000000"/><rect x="1259" y="1555" width="74" height="74" fill="#000000"/><rect x="1333" y="1555" width="74" height="74" fill="#000000"/><rect x="815" y="1629" width="74" height="74" fill="#000000"/><rect x="963" y="1629" width="74" height="74" fill="#000000"/><rect x="1037" y="1629" width="74" height="74" fill="#000000"/><rect x="1111" y="1629" width="74" height="74" fill="#000000"/><rect x="1185" y="1629" width="74" height="74" fill="#000000"/><rect x="1259" y="1629" width="74" height="74" fill="#000000"/><rect x="1481" y="1629" width="74" height="74" fill="#000000"/><rect x="1629" y="1629" width="74" height="74" fill="#000000"/><rect x="1703" y="1629" width="74" height="74" fill="#000000"/><rect x="815" y="1703" width="74" height="74" fill="#000000"/><rect x="889" y="1703" width="74" height="74" fill="#000000"/><rect x="1111" y="1703" width="74" height="74" fill="#000000"/><rect x="1333" y="1703" width="74" height="74" fill="#000000"/><rect x="1555" y="1703" width="74" height="74" fill="#000000"/><rect x="1629" y="1703" width="74" height="74" fill="#000000"/><rect x="223" y="223" width="518" height="74" fill="#000000"/><rect x="223" y="297" width="74" height="370" fill="#000000"/><rect x="667" y="297" width="74" height="370" fill="#000000"/><rect x="223" y="667" width="518" height="74" fill="#000000"/><rect x="223" y="223" width="74" height="74" fill="#000000"/><rect x="297" y="223" width="74" height="74" fill="#000000"/><rect x="371" y="223" width="74" height="74" fill="#000000"/><rect x="445" y="223" width="74" height="74" fill="#000000"/><rect x="519" y="223" width="74" height="74" fill="#000000"/><rect x="593" y="223" width="74" height="74" fill="#000000"/><rect x="667" y="223" width="74" height="74" fill="#000000"/><rect x="223" y="297" width="74" height="74" fill="#000000"/><rect x="667" y="297" width="74" height="74" fill="#000000"/><rect x="223" y="371" width="74" height="74" fill="#000000"/><rect x="667" y="371" width="74" height="74" fill="#000000"/><rect x="223" y="445" width="74" height="74" fill="#000000"/><rect x="667" y="445" width="74" height="74" fill="#000000"/><rect x="223" y="519" width="74" height="74" fill="#000000"/><rect x="667" y="519" width="74" height="74" fill="#000000"/><rect x="223" y="593" width="74" height="74" fill="#000000"/><rect x="667" y="593" width="74" height="74" fill="#000000"/><rect x="223" y="667" width="74" height="74" fill="#000000"/><rect x="297" y="667" width="74" height="74" fill="#000000"/><rect x="371" y="667" width="74" height="74" fill="#000000"/><rect x="445" y="667" width="74" height="74" fill="#000000"/><rect x="519" y="667" width="74" height="74" fill="#000000"/><rect x="593" y="667" width="74" height="74" fill="#000000"/><rect x="667" y="667" width="74" height="74" fill="#000000"/><rect x="371" y="371" width="222" height="222" fill="#000000"/><rect x="371" y="371" width="74" height="74" fill="#000000"/><rect x="445" y="371" width="74" height="74" fill="#000000"/><rect x="519" y="371" width="74" height="74" fill="#000000"/><rect x="371" y="445" width="74" height="74" fill="#000000"/><rect x="445" y="445" width="74" height="74" fill="#000000"/><rect x="519" y="445" width="74" height="74" fill="#000000"/><rect x="371" y="519" width="74" height="74" fill="#000000"/><rect x="445" y="519" width="74" height="74" fill="#000000"/><rect x="519" y="519" width="74" height="74" fill="#000000"/><rect x="1259" y="223" width="518" height="74" fill="#000000"/><rect x="1259" y="297" width="74" height="370" fill="#000000"/><rect x="1703" y="297" width="74" height="370" fill="#000000"/><rect x="1259" y="667" width="518" height="74" fill="#000000"/><rect x="1259" y="223" width="74" height="74" fill="#000000"/><rect x="1333" y="223" width="74" height="74" fill="#000000"/><rect x="1407" y="223" width="74" height="74" fill="#000000"/><rect x="1481" y="223" width="74" height="74" fill="#000000"/><rect x="1555" y="223" width="74" height="74" fill="#000000"/><rect x="1629" y="223" width="74" height="74" fill="#000000"/><rect x="1703" y="223" width="74" height="74" fill="#000000"/><rect x="1259" y="297" width="74" height="74" fill="#000000"/><rect x="1703" y="297" width="74" height="74" fill="#000000"/><rect x="1259" y="371" width="74" height="74" fill="#000000"/><rect x="1703" y="371" width="74" height="74" fill="#000000"/><rect x="1259" y="445" width="74" height="74" fill="#000000"/><rect x="1703" y="445" width="74" height="74" fill="#000000"/><rect x="1259" y="519" width="74" height="74" fill="#000000"/><rect x="1703" y="519" width="74" height="74" fill="#000000"/><rect x="1259" y="593" width="74" height="74" fill="#000000"/><rect x="1703" y="593" width="74" height="74" fill="#000000"/><rect x="1259" y="667" width="74" height="74" fill="#000000"/><rect x="1333" y="667" width="74" height="74" fill="#000000"/><rect x="1407" y="667" width="74" height="74" fill="#000000"/><rect x="1481" y="667" width="74" height="74" fill="#000000"/><rect x="1555" y="667" width="74" height="74" fill="#000000"/><rect x="1629" y="667" width="74" height="74" fill="#000000"/><rect x="1703" y="667" width="74" height="74" fill="#000000"/><rect x="1407" y="371" width="222" height="222" fill="#000000"/><rect x="1407" y="371" width="74" height="74" fill="#000000"/><rect x="1481" y="371" width="74" height="74" fill="#000000"/><rect x="1555" y="371" width="74" height="74" fill="#000000"/><rect x="1407" y="445" width="74" height="74" fill="#000000"/><rect x="1481" y="445" width="74" height="74" fill="#000000"/><rect x="1555" y="445" width="74" height="74" fill="#000000"/><rect x="1407" y="519" width="74" height="74" fill="#000000"/><rect x="1481" y="519" width="74" height="74" fill="#000000"/><rect x="1555" y="519" width="74" height="74" fill="#000000"/><rect x="223" y="1259" width="518" height="74" fill="#000000"/><rect x="223" y="1333" width="74" height="370" fill="#000000"/><rect x="667" y="1333" width="74" height="370" fill="#000000"/><rect x="223" y="1703" width="518" height="74" fill="#000000"/><rect x="223" y="1259" width="74" height="74" fill="#000000"/><rect x="297" y="1259" width="74" height="74" fill="#000000"/><rect x="371" y="1259" width="74" height="74" fill="#000000"/><rect x="445" y="1259" width="74" height="74" fill="#000000"/><rect x="519" y="1259" width="74" height="74" fill="#000000"/><rect x="593" y="1259" width="74" height="74" fill="#000000"/><rect x="667" y="1259" width="74" height="74" fill="#000000"/><rect x="223" y="1333" width="74" height="74" fill="#000000"/><rect x="667" y="1333" width="74" height="74" fill="#000000"/><rect x="223" y="1407" width="74" height="74" fill="#000000"/><rect x="667" y="1407" width="74" height="74" fill="#000000"/><rect x="223" y="1481" width="74" height="74" fill="#000000"/><rect x="667" y="1481" width="74" height="74" fill="#000000"/><rect x="223" y="1555" width="74" height="74" fill="#000000"/><rect x="667" y="1555" width="74" height="74" fill="#000000"/><rect x="223" y="1629" width="74" height="74" fill="#000000"/><rect x="667" y="1629" width="74" height="74" fill="#000000"/><rect x="223" y="1703" width="74" height="74" fill="#000000"/><rect x="297" y="1703" width="74" height="74" fill="#000000"/><rect x="371" y="1703" width="74" height="74" fill="#000000"/><rect x="445" y="1703" width="74" height="74" fill="#000000"/><rect x="519" y="1703" width="74" height="74" fill="#000000"/><rect x="593" y="1703" width="74" height="74" fill="#000000"/><rect x="667" y="1703" width="74" height="74" fill="#000000"/><rect x="371" y="1407" width="222" height="222" fill="#000000"/><rect x="371" y="1407" width="74" height="74" fill="#000000"/><rect x="445" y="1407" width="74" height="74" fill="#000000"/><rect x="519" y="1407" width="74" height="74" fill="#000000"/><rect x="371" y="1481" width="74" height="74" fill="#000000"/><rect x="445" y="1481" width="74" height="74" fill="#000000"/><rect x="519" y="1481" width="74" height="74" fill="#000000"/><rect x="371" y="1555" width="74" height="74" fill="#000000"/><rect x="445" y="1555" width="74" height="74" fill="#000000"/><rect x="519" y="1555" width="74" height="74" fill="#000000"/></svg>

</svg>
